<svg id="Layer_1" data-name="Layer 1" xmlns="http://www.w3.org/2000/svg" viewBox="0 0 100 100"><defs><style>.cls-1{fill:#fff;}</style></defs><title>logosharepoint</title><path id="sharepoint" class="cls-1" d="M85.32,58.37h-.19a24.09,24.09,0,0,1-9.51,11.85c0,.16,0,.31,0,.46a9.14,9.14,0,0,1-14.13,7.68V74h0V69.82h0V63a9.13,9.13,0,0,1,13,3.28,20,20,0,0,0,7-8.75,9.14,9.14,0,0,1-.58-16.33,19.92,19.92,0,0,0-7.19-8A9.13,9.13,0,0,1,61.51,37.6V30.18h0V26h0V21.07a9.12,9.12,0,0,1,13.07,8.08,24.21,24.21,0,0,1,9.92,11c.27,0,.54,0,.82,0a9.16,9.16,0,1,1,0,18.31ZM5.52,14.42V85.58L58.37,95,58.9,5ZM39,62.22a11.29,11.29,0,0,1-8.29,3,17.71,17.71,0,0,1-5.28-.71,22.36,22.36,0,0,1-4.21-1.81V54.9H22a14.07,14.07,0,0,0,4.36,3.2A11.08,11.08,0,0,0,31,59.21a10.81,10.81,0,0,0,1.5-.13A4.65,4.65,0,0,0,34,58.64a3.84,3.84,0,0,0,1.19-1,2.81,2.81,0,0,0,.46-1.75A2.7,2.7,0,0,0,35,54.06a4.37,4.37,0,0,0-2-1.2c-.92-.29-1.89-.56-2.91-.82a17.91,17.91,0,0,1-2.87-1,9.14,9.14,0,0,1-4.42-3.62,11,11,0,0,1-1.35-5.68,9.75,9.75,0,0,1,3.05-7.43,11,11,0,0,1,7.84-2.88,19.16,19.16,0,0,1,8.82,2.19v7.5h-.67a12.23,12.23,0,0,0-3.61-2.63,9.64,9.64,0,0,0-4.36-1.07,8.24,8.24,0,0,0-1.56.15,4.89,4.89,0,0,0-1.5.53,3,3,0,0,0-1.09,1,2.9,2.9,0,0,0,.28,3.5,7,7,0,0,0,2.78,1.26l2.57.72a24.26,24.26,0,0,1,2.66,1,8.92,8.92,0,0,1,4.13,3.34,10.14,10.14,0,0,1,1.34,5.49A10.52,10.52,0,0,1,39,62.22Z"/></svg>