<svg id="Layer_1" data-name="Layer 1" xmlns="http://www.w3.org/2000/svg" viewBox="0 0 100 100"><defs><style>.cls-1{fill:#fff;}.cls-2{fill:#fcdcca;}</style></defs><title>logonintex</title><g id="nintex"><path id="white" class="cls-1" d="M6.36,83.24a9.71,9.71,0,0,1-1.7-.45,1.31,1.31,0,0,1-1-1.59A1,1,0,0,1,4,80.53a10.77,10.77,0,0,1,1.47-1.81L31.91,54.64a7.16,7.16,0,0,0,2.6-4.41,4,4,0,0,0-1.13-3.51c-1.13-1.13-2.37-2.26-3.62-3.28-8.48-7.35-17-14.7-25.55-22a15.5,15.5,0,0,1-1.47-2.27,1.21,1.21,0,0,1,.11-1.58c.23-.11.34-.22.57-.22A5,5,0,0,1,5.23,17c5,0,10-.12,14.92,0A18.34,18.34,0,0,1,31.8,21.85C40.39,29.65,49,37.34,57.58,45c.67.67,1.47,1.24,2.14,1.92a1.65,1.65,0,0,1,.34,2.37c-.11.11-.11.23-.22.23L58.48,50.9,46.27,63.11c-5,4.87-10,9.84-14.81,14.7-2.83,2.83-7.8,5.43-11,5.43Z"/><path id="white-opacity-75" class="cls-2" d="M87.2,16.76a13.08,13.08,0,0,1,2.15.23c1.8.34,1.8,1.58.9,2.82-.34.46-25,24.76-25.44,25.1a2.3,2.3,0,0,1-2.26-.11c-.68-.57-9.72-8.59-11-9.72a1.86,1.86,0,0,1,0-2.72c1.93-1.81,12.1-11.64,13.12-12.21a15.36,15.36,0,0,1,7.23-2.82C73.63,17.1,85.05,16.87,87.2,16.76ZM80.64,83.24l14.7-.11c.22-.12.56-.12.79-.23.9-.34,1.47-.68,1.36-1.47a3,3,0,0,0-1-1.81C95.22,78.49,67.07,53.05,65.6,51.7l-.11-.12a2.14,2.14,0,0,0-3,.12c-1.59,1.69-7.8,7.68-9.16,9.15l-.11.12a1.81,1.81,0,0,0,.11,2.6c1.47,1.24,16,14.47,17.52,15.71a16.92,16.92,0,0,0,7.92,3.62l1.92.34Z"/></g></svg>