<svg id="Layer_1" data-name="Layer 1" xmlns="http://www.w3.org/2000/svg" viewBox="0 0 100 100"><defs><style>.cls-1{fill:#fff;}</style></defs><title>logodynamics</title><path id="dynamics" class="cls-1" d="M47.23,5c.81.2,1.63.41,2.43.64q0,35.1,0,70.19a13.13,13.13,0,0,1-1.72.53c-15.4,1.46-30.6,6.76-43,16-.94.24-1.27,1.35-2.23,1.54.06.08.16.23.22.3a7.37,7.37,0,0,0,1.32-.8c.92-.31,1.78-.8,2.66-1.19a114.9,114.9,0,0,1,32.41-8.94,94.4,94.4,0,0,1,13.12-.78A99.64,99.64,0,0,1,76,85.66l1.85-.48q0-15.89,0-31.78C84.15,47.59,90.73,42,96.39,35.47c.52.28,1,.57,1.54.87,0,18.39,0,36.79,0,55.18,0,1,0,1.93,0,2.89-.78.17-1.54.8-2.34.52a147.21,147.21,0,0,0-68.58-6,130.12,130.12,0,0,0-23.7,5.62,9.43,9.43,0,0,1-1.18.22c0-2.35,0-4.69,0-7,0-.33.27-.53.45-.75A186.17,186.17,0,0,0,36.36,37.79,150.16,150.16,0,0,0,44.6,16.4,87.56,87.56,0,0,0,47.23,5ZM67.89,33.39a117.27,117.27,0,0,0,6.18-12.83l2,.68q0,31,0,61.92c-1.32.21-2.68.72-4,.28a103.52,103.52,0,0,0-23.63-2C33.74,81.89,19,85.35,6,92.45a6.55,6.55,0,0,1-1.69.8A10.09,10.09,0,0,1,7,91.16,91.8,91.8,0,0,1,50.09,77.74a2.81,2.81,0,0,0,1.21-.44q0-10.72,0-21.44A106.86,106.86,0,0,0,67.89,33.39Z"/></svg>