<svg id="Layer_1" data-name="Layer 1" xmlns="http://www.w3.org/2000/svg" viewBox="0 0 100 100"><defs><style>.cls-1{fill:#fff;}</style></defs><title>logooffice-365</title><path id="office-365" class="cls-1" d="M13.59,77.89l47.49,5.72V19.55l-3.71.84c-9,2.11-18.08,4.24-27.12,6.32-.71.17-.91.45-.91,1.16q0,20.7,0,41.39a1.34,1.34,0,0,1-.95,1.46c-5,2.14-10,4.34-15,6.52l-.84.34c0-.33,0-.59,0-.85q0-26.56,0-53.11a1,1,0,0,1,.79-1.14q23.52-8.67,47-17.35a2.59,2.59,0,0,1,1.51,0C70.1,7.7,78.31,10.35,86.54,13a1.1,1.1,0,0,1,.91,1.26q0,36,0,72.05a1,1,0,0,1-.87,1.21c-8.3,2.47-16.58,5-24.87,7.45a2.07,2.07,0,0,1-1.23,0Q37.19,86.55,13.9,78.16c-.12,0-.22-.1-.34-.15Z"/></svg>