<?xml version="1.0" encoding="UTF-8"?>
<svg width="300px" height="300px" viewBox="0 0 300 300" version="1.1" xmlns="http://www.w3.org/2000/svg" xmlns:xlink="http://www.w3.org/1999/xlink">
  <!-- Generator: Sketch 46.2 (44496) - http://www.bohemiancoding.com/sketch -->
  <defs>
    <path d="M2.60571429,0 C1.16642857,0 0,1.22181818 0,2.72727273 C0,4.23409091 1.16642857,5.45454545 2.60571429,5.45454545 L14.5378571,5.45454545 C15.9757143,5.45454545 17.1428571,4.23340909 17.1428571,2.72727273 C17.1428571,1.22181818 15.9757143,0 14.5378571,0 L2.60571429,0 Z" id="path-1">
    </path>
    <path d="M0,1.62337662 C0,2.52012987 0.871948052,3.2474026 1.94727273,3.2474026 C3.02337662,3.2474026 3.8961039,2.52012987 3.8961039,1.62337662 C3.8961039,0.727272727 3.02337662,0 1.94727273,0 C0.871948052,0 0,0.727272727 0,1.62337662 Z" id="path-3">
    </path>
    <path d="M2.60571429,0 C1.16642857,0 0,1.24121212 0,2.77056277 C0,4.29991342 1.16642857,5.54181818 2.60571429,5.54181818 L14.5378571,5.54181818 C15.9757143,5.54181818 17.1428571,4.29991342 17.1428571,2.77056277 C17.1428571,1.24121212 15.9757143,0 14.5378571,0 L2.60571429,0 Z" id="path-5">
    </path>
    <path d="M0,1.94883117 C0,3.02493506 0.871948052,3.8961039 1.94727273,3.8961039 C3.02337662,3.8961039 3.8961039,3.02493506 3.8961039,1.94883117 C3.8961039,0.871948052 3.02337662,0.000779220779 1.94727273,0.000779220779 C0.871948052,0.000779220779 0,0.871948052 0,1.94883117 Z" id="path-7">
    </path>
    <path d="M2.60571429,0 C1.16642857,0 0,1.22113636 0,2.72795455 C0,4.23409091 1.16642857,5.45590909 2.60571429,5.45454545 L14.5378571,5.45454545 C15.9757143,5.45454545 17.1428571,4.23409091 17.1428571,2.72795455 C17.1428571,1.22113636 15.9757143,0 14.5378571,0 L2.60571429,0 Z" id="path-9">
    </path>
    <path d="M0,1.62337662 C0,2.52012987 0.871948052,3.2474026 1.94727273,3.2474026 C3.02337662,3.2474026 3.8961039,2.52012987 3.8961039,1.62337662 C3.8961039,0.726623377 3.02337662,0 1.94727273,0 C0.871948052,0 0,0.726623377 0,1.62337662 Z" id="path-11">
    </path>
    <path d="M2.97721558,0.342164502 C1.5326961,0.342164502 0.362025974,1.58406926 0.362025974,3.11272727 C0.362025974,4.6434632 1.5326961,5.88329004 2.97721558,5.88329004 L14.9527481,5.88329004 C16.3958338,5.88329004 17.5672208,4.64277056 17.5672208,3.11272727 C17.5672208,1.58406926 16.3958338,0.342164502 14.9527481,0.342164502 L2.97721558,0.342164502 Z" id="path-13">
    </path>
    <path d="M0.327922078,1.94480519 C0.327922078,2.84090909 1.05454545,3.56818182 1.9512987,3.56818182 C2.84805195,3.56818182 3.57467532,2.84090909 3.57467532,1.94480519 C3.57467532,1.04805195 2.84805195,0.320779221 1.9512987,0.320779221 C1.05454545,0.320779221 0.327922078,1.04805195 0.327922078,1.94480519 Z" id="path-15">
    </path>
    <path d="M2.97721558,0.342164502 C1.5326961,0.342164502 0.362025974,1.58268398 0.362025974,3.11272727 C0.362025974,4.6434632 1.5326961,5.88398268 2.97721558,5.88398268 L14.9527481,5.88398268 C16.3958338,5.88398268 17.5672208,4.6434632 17.5672208,3.11272727 C17.5672208,1.58268398 16.3958338,0.342164502 14.9527481,0.342164502 L2.97721558,0.342164502 Z" id="path-17">
    </path>
    <path d="M0.327922078,1.94415584 C0.327922078,2.84090909 1.05454545,3.56753247 1.9512987,3.56753247 C2.84805195,3.56753247 3.57467532,2.84090909 3.57467532,1.94415584 C3.57467532,1.0487013 2.84805195,0.321428571 1.9512987,0.321428571 C1.05454545,0.321428571 0.327922078,1.0487013 0.327922078,1.94415584 Z" id="path-19">
    </path>
    <path d="M2.97721558,0.342164502 C1.5326961,0.342164502 0.362025974,1.58337662 0.362025974,3.11341991 C0.362025974,4.6434632 1.5326961,5.88467532 2.97721558,5.88329004 L14.9527481,5.88329004 C16.3958338,5.88329004 17.5672208,4.64277056 17.5672208,3.11341991 C17.5672208,1.58337662 16.3958338,0.342164502 14.9527481,0.342164502 L2.97721558,0.342164502 Z" id="path-21">
    </path>
    <path d="M0.327922078,1.94415584 C0.327922078,2.84090909 1.05454545,3.56818182 1.9512987,3.56818182 C2.84805195,3.56818182 3.57467532,2.84090909 3.57467532,1.94415584 C3.57467532,1.0474026 2.84805195,0.320779221 1.9512987,0.320779221 C1.05454545,0.320779221 0.327922078,1.0474026 0.327922078,1.94415584 Z" id="path-23">
    </path>
    <path d="M34.1106974,0.000702576112 C24.1605064,0.0786885246 16.0207268,7.68266979 15.1240074,17.3761124 C14.3984285,17.2503513 13.6572913,17.1716628 12.8956455,17.1716628 C5.77139365,17.1716628 0,22.9229508 0,30.0161593 C0,37.0672131 5.7049176,42.7918033 12.7733013,42.8571429 L77.1751522,42.8571429 C81.0088399,42.8065574 84.1049263,39.724356 84.1558442,35.90726 L84.1558442,35.718267 C84.1042191,31.8702576 80.9572149,28.7662763 77.0796813,28.7662763 C76.9912823,28.7662763 76.9149056,28.7873536 76.8265066,28.7901639 C77.1737379,27.5437939 77.3752876,26.2355972 77.3752876,24.8775176 C77.3752876,16.8126464 70.8111317,10.2723653 62.7123693,10.2723653 C58.8878752,10.2723653 55.4162698,11.7421546 52.8081458,14.1288056 C50.6031212,6.03793911 43.2249874,0.0681498829 34.4147899,0.000702576112 L34.1106974,0.000702576112 Z" id="path-25">
    </path>
    <path d="M8.10105263,4.36027341 C-0.642624744,10.9209023 -2.29254956,23.1643882 4.39245386,31.725974 C8.30507177,36.7457963 14.2251811,39.3825974 20.212823,39.3825974 C24.431825,39.3825974 28.6813944,38.0641969 32.2876282,35.3590704 C41.0142447,28.8061107 42.6812303,16.5591388 35.9948052,7.99964457 C32.083609,2.9763363 26.1620779,0.338838004 20.1744361,0.338838004 C15.9604101,0.338838004 11.7065755,1.63841422 8.10105263,4.36027341 Z" id="path-27">
    </path>
    <path d="M8.30082917,1.41381818 C9.68688312,3.69303896 11.5518581,5.9925974 13.6534765,8.23535065 C13.6577023,8.23955844 13.6626324,8.24306494 13.6668581,8.24797403 C11.9145704,9.47945455 9.96296703,11.1261039 8.16349151,13.0385455 C7.93318681,13.2847013 7.71274226,13.5322597 7.49581918,13.7798182 C6.42106394,13.554 5.28926074,13.6192208 4.23281718,14.0042338 C2.43897602,10.1141299 2.58265235,6.98984416 2.86648352,5.37825974 C2.08753247,6.19877922 1.359995,7.06067532 0.733171828,7.98007792 C0.264815185,9.90303896 0.131703297,12.6773766 1.51353147,16.0197662 C-0.0859240759,18.1236623 -0.161283716,21.1076883 1.51000999,23.3083636 C1.64946054,23.4907013 1.79806693,23.6611169 1.95230769,23.8224156 C1.22336164,26.3204416 0.896568432,28.7301039 0.79514985,30.7996364 C0.983901099,31.0563117 0.983901099,31.2631948 1.16983516,31.5128571 C2.12063437,32.738026 3.31371129,33.7696364 4.46734765,34.7051688 C4.32437562,32.5143117 4.47791209,29.2855325 5.82522977,25.6478961 C6.7549001,25.7194286 7.70076923,25.5714545 8.58606893,25.1976623 C9.09316184,25.6457922 9.6242008,26.0995325 10.1911588,26.5595844 C12.135015,28.1073506 14.0746454,29.3100779 15.964975,30.2582338 C15.8663736,31.2239221 16.1072428,32.2281818 16.731953,33.0599221 C18.0672977,34.7928312 20.5400799,35.1154286 22.2663087,33.7913766 C22.6254995,33.5150649 22.9093307,33.1812468 23.1452697,32.8228831 C26.2272677,33.5122597 28.9197902,33.6342857 30.9164685,33.6342857 C31.2221329,33.6342857 32.641993,31.6951948 33.4554545,30.4917662 C32.2398402,30.7477403 28.6338462,31.244961 23.7065934,29.8227273 C23.5875674,29.2665974 23.3600799,28.7272987 22.9952547,28.2462078 C21.743017,26.5981558 19.4554645,26.2411948 17.7496603,27.3443377 C16.0368132,26.4102078 14.242972,25.2404416 12.3934915,23.7684156 C12.0202148,23.4710649 11.6624326,23.1744156 11.3166234,22.8777662 C12.447018,21.0887532 12.5674525,18.7948052 11.5680569,16.8648312 C11.7948402,16.6376104 12.0173976,16.408987 12.2582667,16.1831688 C14.0901399,14.4635844 15.8135514,13.0869351 17.4256843,11.9823896 C17.3608891,11.9220779 17.3017283,11.8582597 17.239046,11.7972468 C17.3024326,11.8568571 17.363002,11.9178701 17.4277972,11.9774805 C17.4270929,11.9774805 17.4270929,11.9788831 17.4263886,11.9788831 C19.8998751,14.277039 22.5226723,16.4545714 25.006019,18.4013766 C24.3496154,19.8018701 24.4524426,21.5067273 25.4518382,22.8188571 C26.8914186,24.7046494 29.5621079,25.0454805 31.4284915,23.6183377 C31.5256843,23.544 31.601044,23.4528312 31.6897852,23.3721818 C33.5991309,24.7235844 34.926024,25.6156364 35.6725774,26.1268831 C35.8937263,25.5511169 36.0465584,24.9984935 36.2043207,24.4206234 C35.4141009,23.8308312 34.3470929,23.0054026 32.8032767,21.7486753 C33.3103696,20.4105974 33.1497902,18.8495065 32.22505,17.6306494 C30.9023826,15.9103636 28.5584865,15.4727532 26.728022,16.5338182 C24.7102148,14.7153506 22.4930919,12.6296883 20.1555345,10.2957662 C27.4189361,6.3705974 32.5793107,6.94566234 32.5793107,6.94566234 C31.717957,5.84181818 30.7523676,4.87472727 29.7212787,4.00161039 C26.6575924,3.52542857 21.8993706,3.57942857 16.4622078,6.48490909 L16.4607992,6.48280519 L16.4600949,6.48280519 C14.6479421,4.57667532 12.8040959,2.53449351 10.9257393,0.340831169 C10.0270579,0.629766234 9.1488012,0.987428571 8.30082917,1.41381818 Z" id="path-29">
    </path>
  </defs>
  <g id="Page-1" stroke="none" stroke-width="1" fill="none" fill-rule="evenodd">
    <g id="illo_StoryPoint_2">
      <g id="illustration" transform="translate(62.000000, 60.000000)">
        <polygon id="Fill-1" fill="#3E3E3E" points="106.753247 42.0779221 131.688312 42.0779221 131.688312 0 106.753247 0">
        </polygon>
        <g id="Group-4" transform="translate(110.649351, 21.038961)">
          <mask id="mask-2" fill="white">
            <use xlink:href="#path-1">
            </use>
          </mask>
          <g id="Clip-3">
          </g>
          <polygon id="Fill-2" fill="#1E1E1E" mask="url(#mask-2)" points="-3.57142857 8.86363636 20.7142857 8.86363636 20.7142857 -3.40909091 -3.57142857 -3.40909091">
          </polygon>
        </g>
        <g id="Group-7" transform="translate(111.428571, 21.818182)">
          <mask id="mask-4" fill="white">
            <use xlink:href="#path-3">
            </use>
          </mask>
          <g id="Clip-6">
          </g>
          <polygon id="Fill-5" fill="#B8D432" mask="url(#mask-4)" points="-3.8961039 6.49350649 7.79220779 6.49350649 7.79220779 -3.24675325 -3.8961039 -3.24675325">
          </polygon>
        </g>
        <g id="Group-10" transform="translate(110.649351, 13.246753)">
          <mask id="mask-6" fill="white">
            <use xlink:href="#path-5">
            </use>
          </mask>
          <g id="Clip-9">
          </g>
          <polygon id="Fill-8" fill="#1E1E1E" mask="url(#mask-6)" points="-3.57142857 9.004329 20.7142857 9.004329 20.7142857 -3.46320346 -3.57142857 -3.46320346">
          </polygon>
        </g>
        <g id="Group-13" transform="translate(111.428571, 14.025974)">
          <mask id="mask-8" fill="white">
            <use xlink:href="#path-7">
            </use>
          </mask>
          <g id="Clip-12">
          </g>
          <polygon id="Fill-11" fill="#B8D432" mask="url(#mask-8)" points="-3.8961039 7.79220779 7.79220779 7.79220779 7.79220779 -3.8961039 -3.8961039 -3.8961039">
          </polygon>
        </g>
        <g id="Group-16" transform="translate(110.649351, 5.454545)">
          <mask id="mask-10" fill="white">
            <use xlink:href="#path-9">
            </use>
          </mask>
          <g id="Clip-15">
          </g>
          <polygon id="Fill-14" fill="#1E1E1E" mask="url(#mask-10)" points="-3.57142857 8.86363636 20.7142857 8.86363636 20.7142857 -3.40909091 -3.57142857 -3.40909091">
          </polygon>
        </g>
        <g id="Group-19" transform="translate(111.428571, 6.233766)">
          <mask id="mask-12" fill="white">
            <use xlink:href="#path-11">
            </use>
          </mask>
          <g id="Clip-18">
          </g>
          <polygon id="Fill-17" fill="#B8D432" mask="url(#mask-12)" points="-3.8961039 6.49350649 7.79220779 6.49350649 7.79220779 -3.24675325 -3.8961039 -3.24675325">
          </polygon>
        </g>
        <polygon id="Fill-20" fill="#3E3E3E" points="80.2597403 180 105.194805 180 105.194805 137.922078 80.2597403 137.922078">
        </polygon>
        <g id="Group-23" transform="translate(83.376623, 158.181818)">
          <mask id="mask-14" fill="white">
            <use xlink:href="#path-13">
            </use>
          </mask>
          <g id="Clip-22">
          </g>
          <polygon id="Fill-21" fill="#1E1E1E" mask="url(#mask-14)" points="-3.22238961 9.34649351 21.1516364 9.34649351 21.1516364 -3.12103896 -3.22238961 -3.12103896">
          </polygon>
        </g>
        <g id="Group-26" transform="translate(84.155844, 158.961039)">
          <mask id="mask-16" fill="white">
            <use xlink:href="#path-15">
            </use>
          </mask>
          <g id="Clip-25">
          </g>
          <polygon id="Fill-24" fill="#B8D432" mask="url(#mask-16)" points="-2.91883117 6.81428571 6.82142857 6.81428571 6.82142857 -2.92597403 -2.91883117 -2.92597403">
          </polygon>
        </g>
        <g id="Group-29" transform="translate(83.376623, 150.389610)">
          <mask id="mask-18" fill="white">
            <use xlink:href="#path-17">
            </use>
          </mask>
          <g id="Clip-28">
          </g>
          <polygon id="Fill-27" fill="#1E1E1E" mask="url(#mask-18)" points="-3.22238961 9.34649351 21.1516364 9.34649351 21.1516364 -3.12103896 -3.22238961 -3.12103896">
          </polygon>
        </g>
        <g id="Group-32" transform="translate(84.155844, 151.168831)">
          <mask id="mask-20" fill="white">
            <use xlink:href="#path-19">
            </use>
          </mask>
          <g id="Clip-31">
          </g>
          <polygon id="Fill-30" fill="#B8D432" mask="url(#mask-20)" points="-2.91883117 6.81428571 6.82142857 6.81428571 6.82142857 -2.92597403 -2.91883117 -2.92597403">
          </polygon>
        </g>
        <g id="Group-35" transform="translate(83.376623, 142.597403)">
          <mask id="mask-22" fill="white">
            <use xlink:href="#path-21">
            </use>
          </mask>
          <g id="Clip-34">
          </g>
          <polygon id="Fill-33" fill="#1E1E1E" mask="url(#mask-22)" points="-3.22238961 9.34649351 21.1516364 9.34649351 21.1516364 -3.12103896 -3.22238961 -3.12103896">
          </polygon>
        </g>
        <g id="Group-38" transform="translate(84.155844, 143.376623)">
          <mask id="mask-24" fill="white">
            <use xlink:href="#path-23">
            </use>
          </mask>
          <g id="Clip-37">
          </g>
          <polygon id="Fill-36" fill="#B8D432" mask="url(#mask-24)" points="-2.91883117 6.81428571 6.82142857 6.81428571 6.82142857 -2.92597403 -2.91883117 -2.92597403">
          </polygon>
        </g>
        <polygon id="Fill-39" fill="#1D378C" points="33.5064935 84.1558442 34.2857143 84.1558442 34.2857143 71.6883117 33.5064935 71.6883117">
        </polygon>
        <polygon id="Fill-40" fill="#1B348E" points="0 180 61.5584416 180 61.5584416 104.415584 0 104.415584">
        </polygon>
        <polygon id="Fill-41" fill="#0072C6" points="62.3376623 180 73.2467532 180 73.2467532 104.415584 62.3376623 104.415584">
        </polygon>
        <polygon id="Fill-42" fill="#FEFEFE" points="7.01298701 116.103896 10.1298701 116.103896 10.1298701 112.207792 7.01298701 112.207792">
        </polygon>
        <polygon id="Fill-43" fill="#FEFEFE" points="7.01298701 123.116883 10.1298701 123.116883 10.1298701 119.220779 7.01298701 119.220779">
        </polygon>
        <polygon id="Fill-44" fill="#FEFEFE" points="7.01298701 130.909091 10.1298701 130.909091 10.1298701 127.012987 7.01298701 127.012987">
        </polygon>
        <polygon id="Fill-45" fill="#00ABEC" points="7.01298701 137.922078 10.1298701 137.922078 10.1298701 134.025974 7.01298701 134.025974">
        </polygon>
        <polygon id="Fill-46" fill="#00ABEC" points="7.01298701 144.935065 10.1298701 144.935065 10.1298701 141.038961 7.01298701 141.038961">
        </polygon>
        <polygon id="Fill-47" fill="#FEFEFE" points="7.01298701 152.727273 10.1298701 152.727273 10.1298701 148.831169 7.01298701 148.831169">
        </polygon>
        <polygon id="Fill-48" fill="#00ABEC" points="7.01298701 159.74026 10.1298701 159.74026 10.1298701 155.844156 7.01298701 155.844156">
        </polygon>
        <polygon id="Fill-49" fill="#FFFC9E" points="7.01298701 167.532468 10.1298701 167.532468 10.1298701 163.636364 7.01298701 163.636364">
        </polygon>
        <polygon id="Fill-50" fill="#00ABEC" points="7.01298701 174.545455 10.1298701 174.545455 10.1298701 170.649351 7.01298701 170.649351">
        </polygon>
        <polygon id="Fill-51" fill="#00ABEC" points="17.9220779 116.103896 21.038961 116.103896 21.038961 112.207792 17.9220779 112.207792">
        </polygon>
        <polygon id="Fill-52" fill="#FEFEFE" points="17.9220779 123.116883 21.038961 123.116883 21.038961 119.220779 17.9220779 119.220779">
        </polygon>
        <polygon id="Fill-53" fill="#00ABEC" points="17.9220779 130.909091 21.038961 130.909091 21.038961 127.012987 17.9220779 127.012987">
        </polygon>
        <polygon id="Fill-54" fill="#00ABEC" points="17.9220779 137.922078 21.038961 137.922078 21.038961 134.025974 17.9220779 134.025974">
        </polygon>
        <polygon id="Fill-55" fill="#00ABEC" points="17.9220779 144.935065 21.038961 144.935065 21.038961 141.038961 17.9220779 141.038961">
        </polygon>
        <polygon id="Fill-56" fill="#00ABEC" points="17.9220779 152.727273 21.038961 152.727273 21.038961 148.831169 17.9220779 148.831169">
        </polygon>
        <polygon id="Fill-57" fill="#00ABEC" points="17.9220779 159.74026 21.038961 159.74026 21.038961 155.844156 17.9220779 155.844156">
        </polygon>
        <polygon id="Fill-58" fill="#00ABEC" points="17.9220779 167.532468 21.038961 167.532468 21.038961 163.636364 17.9220779 163.636364">
        </polygon>
        <polygon id="Fill-59" fill="#00ABEC" points="17.9220779 174.545455 21.038961 174.545455 21.038961 170.649351 17.9220779 170.649351">
        </polygon>
        <polygon id="Fill-60" fill="#00ABEC" points="28.8311688 116.103896 31.9480519 116.103896 31.9480519 112.207792 28.8311688 112.207792">
        </polygon>
        <polygon id="Fill-61" fill="#00ABEC" points="28.8311688 123.116883 31.9480519 123.116883 31.9480519 119.220779 28.8311688 119.220779">
        </polygon>
        <polygon id="Fill-62" fill="#FEFEFE" points="28.8311688 130.909091 31.9480519 130.909091 31.9480519 127.012987 28.8311688 127.012987">
        </polygon>
        <polygon id="Fill-63" fill="#00ABEC" points="28.8311688 137.922078 31.9480519 137.922078 31.9480519 134.025974 28.8311688 134.025974">
        </polygon>
        <polygon id="Fill-64" fill="#FFFC9E" points="28.8311688 144.935065 31.9480519 144.935065 31.9480519 141.038961 28.8311688 141.038961">
        </polygon>
        <polygon id="Fill-65" fill="#FEFEFE" points="28.8311688 152.727273 31.9480519 152.727273 31.9480519 148.831169 28.8311688 148.831169">
        </polygon>
        <polygon id="Fill-66" fill="#00ABEC" points="28.8311688 159.74026 31.9480519 159.74026 31.9480519 155.844156 28.8311688 155.844156">
        </polygon>
        <polygon id="Fill-67" fill="#00ABEC" points="28.8311688 167.532468 31.9480519 167.532468 31.9480519 163.636364 28.8311688 163.636364">
        </polygon>
        <polygon id="Fill-68" fill="#00ABEC" points="28.8311688 174.545455 31.9480519 174.545455 31.9480519 170.649351 28.8311688 170.649351">
        </polygon>
        <polygon id="Fill-69" fill="#FEFEFE" points="39.7402597 116.103896 42.8571429 116.103896 42.8571429 112.207792 39.7402597 112.207792">
        </polygon>
        <polygon id="Fill-70" fill="#FFFC9E" points="39.7402597 123.116883 42.8571429 123.116883 42.8571429 119.220779 39.7402597 119.220779">
        </polygon>
        <polygon id="Fill-71" fill="#00ABEC" points="39.7402597 130.909091 42.8571429 130.909091 42.8571429 127.012987 39.7402597 127.012987">
        </polygon>
        <polygon id="Fill-72" fill="#00ABEC" points="39.7402597 137.922078 42.8571429 137.922078 42.8571429 134.025974 39.7402597 134.025974">
        </polygon>
        <polygon id="Fill-73" fill="#00ABEC" points="39.7402597 144.935065 42.8571429 144.935065 42.8571429 141.038961 39.7402597 141.038961">
        </polygon>
        <polygon id="Fill-74" fill="#00ABEC" points="39.7402597 152.727273 42.8571429 152.727273 42.8571429 148.831169 39.7402597 148.831169">
        </polygon>
        <polygon id="Fill-75" fill="#00ABEC" points="39.7402597 159.74026 42.8571429 159.74026 42.8571429 155.844156 39.7402597 155.844156">
        </polygon>
        <polygon id="Fill-76" fill="#00ABEC" points="39.7402597 167.532468 42.8571429 167.532468 42.8571429 163.636364 39.7402597 163.636364">
        </polygon>
        <polygon id="Fill-77" fill="#00ABEC" points="39.7402597 174.545455 42.8571429 174.545455 42.8571429 170.649351 39.7402597 170.649351">
        </polygon>
        <polygon id="Fill-78" fill="#00ABEC" points="50.6493506 116.103896 53.7662338 116.103896 53.7662338 112.207792 50.6493506 112.207792">
        </polygon>
        <polygon id="Fill-79" fill="#FEFEFE" points="50.6493506 123.116883 53.7662338 123.116883 53.7662338 119.220779 50.6493506 119.220779">
        </polygon>
        <polygon id="Fill-80" fill="#00ABEC" points="50.6493506 130.909091 53.7662338 130.909091 53.7662338 127.012987 50.6493506 127.012987">
        </polygon>
        <polygon id="Fill-81" fill="#FFFC9E" points="50.6493506 137.922078 53.7662338 137.922078 53.7662338 134.025974 50.6493506 134.025974">
        </polygon>
        <polygon id="Fill-82" fill="#FFFC9E" points="50.6493506 144.935065 53.7662338 144.935065 53.7662338 141.038961 50.6493506 141.038961">
        </polygon>
        <polygon id="Fill-83" fill="#FEFEFE" points="50.6493506 152.727273 53.7662338 152.727273 53.7662338 148.831169 50.6493506 148.831169">
        </polygon>
        <polygon id="Fill-84" fill="#00ABEC" points="50.6493506 159.74026 53.7662338 159.74026 53.7662338 155.844156 50.6493506 155.844156">
        </polygon>
        <polygon id="Fill-85" fill="#FEFEFE" points="50.6493506 167.532468 53.7662338 167.532468 53.7662338 163.636364 50.6493506 163.636364">
        </polygon>
        <polygon id="Fill-86" fill="#00ABEC" points="50.6493506 174.545455 53.7662338 174.545455 53.7662338 170.649351 50.6493506 170.649351">
        </polygon>
        <polygon id="Fill-87" fill="#1B348E" points="21.038961 105.194805 39.7402597 105.194805 39.7402597 97.4025974 21.038961 97.4025974">
        </polygon>
        <polygon id="Fill-88" fill="#0072C6" points="39.7402597 105.194805 47.5324675 105.194805 47.5324675 97.4025974 39.7402597 97.4025974">
        </polygon>
        <polygon id="Fill-89" fill="#0072C6" points="31.6479802 84.1558442 28.0519481 97.4025974 39.7402597 97.4025974 36.1435378 84.1558442">
        </polygon>
        <polygon id="Fill-90" fill="#1B348E" points="31.6146859 84.1558442 28.0519481 97.4025974 34.2857143 97.4025974 34.2857143 84.1558442">
        </polygon>
        <g id="Group-93" transform="translate(58.441558, 20.259740)">
          <mask id="mask-26" fill="white">
            <use xlink:href="#path-25">
            </use>
          </mask>
          <g id="Clip-92">
          </g>
          <polygon id="Fill-91" fill="#CCEEFB" mask="url(#mask-26)" points="-3.53595984 46.3700234 87.691804 46.3700234 87.691804 -3.51288056 -3.53595984 -3.51288056">
          </polygon>
        </g>
        <g id="Group-96" transform="translate(134.805195, 86.493506)">
          <mask id="mask-28" fill="white">
            <use xlink:href="#path-27">
            </use>
          </mask>
          <g id="Clip-95">
          </g>
          <polygon id="Fill-94" fill="#59B4D9" mask="url(#mask-28)" points="-3.26714969 42.8678879 43.6501435 42.8678879 43.6501435 -3.14714969 -3.26714969 -3.14714969">
          </polygon>
        </g>
        <g id="Group-99" transform="translate(138.701299, 87.272727)">
          <mask id="mask-30" fill="white">
            <use xlink:href="#path-29">
            </use>
          </mask>
          <g id="Clip-98">
          </g>
          <polygon id="Fill-97" fill="#FFFFFF" mask="url(#mask-30)" points="-3.23694306 38.210961 39.7250949 38.210961 39.7250949 -3.16566234 -3.23694306 -3.16566234">
          </polygon>
        </g>
        <g id="Group-104" transform="translate(105.194805, 46.753247)" fill="#969696">
          <path d="M51.3606575,104.372675 C49.5606575,103.283436 48.0128689,102.347184 46.4411272,101.396126 C36.9677025,115.046516 23.3990137,118.931822 7.75063796,117.920839 C21.8251585,117.057202 31.8403444,109.65672 39.5687202,98.193269 C37.7363131,97.3606531 36.0300117,96.5851429 34.0996791,95.7074063 C38.7268415,93.8461818 43.1299726,92.0751985 47.703593,90.2351243 C48.9125166,94.9079258 50.0988963,99.4947161 51.3606575,104.372675" id="Fill-100">
          </path>
          <path d="M14.3094716,46.173666 C15.4465362,44.2912913 16.4243836,42.673295 17.4170254,41.0299184 C3.16567515,31.124538 -0.891545988,16.9376364 0.163796477,0.575781076 C1.06626223,15.2921447 8.79252446,25.7636475 20.7605871,33.8437588 C21.6306458,31.9282486 22.4401174,30.1438701 23.3566732,28.1254286 C25.2996869,32.9639072 27.149002,37.5676178 29.0694716,42.3504007 C24.1915068,43.6137774 19.4023092,44.8538887 14.3094716,46.173666" id="Fill-102">
          </path>
        </g>
      </g>
    </g>
  </g>
</svg>