<?xml version="1.0" encoding="UTF-8"?>
<svg width="300px" height="300px" viewBox="0 0 300 300" version="1.1" xmlns="http://www.w3.org/2000/svg" xmlns:xlink="http://www.w3.org/1999/xlink">
  <!-- Generator: Sketch 46.2 (44496) - http://www.bohemiancoding.com/sketch -->
  <defs>
  </defs>
  <g id="Page-1" stroke="none" stroke-width="1" fill="none" fill-rule="evenodd">
    <g id="illo_StoryPoint_4" fill-rule="nonzero">
      <g id="Untitled-1" transform="translate(40.000000, 81.000000)">
        <path d="M120.883092,65.5536232 L121.138164,65.5536232 C128.876381,64.2407389 134.3114,57.2084409 133.631102,49.3891791 C132.950804,41.5699174 126.38298,35.5819007 118.5343,35.6251208 L118.396135,35.6251208 C118.481159,34.668599 118.523671,33.7014493 118.523671,32.7236715 C118.534123,16.6986001 106.923579,3.0299768 91.1078542,0.448140935 C75.2921296,-2.13369493 59.9375115,7.13300405 54.8512077,22.3294686 C46.4836218,19.4817715 37.2238451,21.8403948 31.2382212,28.3440998 C25.2525972,34.8478048 23.6689835,44.2711129 27.1999112,52.3741014 C30.7308389,60.4770899 38.7109832,65.7329309 47.5497585,65.7768116 L119.82029,65.7768116 L119.82029,65.7768116 C120.13913,65.7768116 120.457971,65.7130435 120.766184,65.6599034 L120.883092,65.5536232 Z" id="Shape" fill="#CBEBF5" opacity="0.8">
        </path>
        <path d="M166.732367,44.2444444 L166.732367,44.2444444 C145.699517,41.9275362 142.181643,32.8618357 142.181643,32.8618357 C142.181643,32.8618357 137.452174,44.7545894 107.194203,44.7545894 L107.194203,93.6434783 C107.194203,99.552657 110.478261,105.089855 115.027053,109.936232 L115.027053,109.936232 C125.336232,120.914976 142.181643,128.290821 142.181643,128.290821 C142.181643,128.290821 177.169082,112.997101 177.169082,93.6434783 L177.169082,44.7545894 C173.683456,44.7759813 170.199291,44.6056759 166.732367,44.2444444 Z" id="Shape" fill="#7FBA00">
        </path>
        <path d="M150.83285,64.4483092 L166.774879,44.2550725 C145.742029,41.9381643 142.224155,32.8724638 142.224155,32.8724638 C142.224155,32.8724638 137.452174,44.7545894 107.194203,44.7545894 L107.194203,93.6434783 C107.194203,99.552657 110.478261,105.089855 115.027053,109.936232 L126.771014,95.0038647 L150.83285,64.4483092 Z" id="Shape" fill="#B8D432" opacity="0.4">
        </path>
        <path d="M156.061836,79.5613527 L154.031884,79.5613527 L154.031884,72.7806763 C154.048199,69.6513487 152.91341,66.625246 150.843478,64.2782609 L150.843478,64.2782609 L150.630918,64.0231884 C148.464509,61.6544582 145.402288,60.3053138 142.192271,60.3053138 C138.982253,60.3053138 135.920032,61.6544582 133.753623,64.0231884 C131.549449,66.4005716 130.333384,69.5281413 130.352657,72.7700483 L130.352657,79.5507246 L128.322705,79.5507246 C127.916809,79.5507246 127.527537,79.7119664 127.240525,79.9989786 C126.953512,80.2859908 126.792271,80.6752629 126.792271,81.0811594 L126.792271,94.8975845 L126.792271,94.8975845 L126.792271,99.0425121 C126.792271,99.8877479 127.47747,100.572947 128.322705,100.572947 L156.072464,100.572947 C156.9177,100.572947 157.602899,99.8877479 157.602899,99.0425121 L157.602899,81.0917874 C157.602908,80.6840427 157.440209,80.2931513 157.150894,80.0058317 C156.861579,79.718512 156.469571,79.5585211 156.061836,79.5613527 Z M148.409662,79.5613527 L135.974879,79.5613527 L135.974879,72.7806763 C135.955765,70.9644827 136.628306,69.209037 137.856039,67.8705314 C138.958844,66.638983 140.533811,65.9351799 142.186957,65.9351799 C143.840102,65.9351799 145.415069,66.638983 146.517874,67.8705314 C146.793525,68.1706579 147.042457,68.494269 147.261836,68.8376812 L147.261836,68.8376812 C148.016003,70.014129 148.414564,71.3832593 148.409662,72.7806763 L148.409662,79.5613527 Z" id="Shape" fill="#FFFFFF">
        </path>
        <path d="M130.352657,119.628986 C130.235749,119.628986 130.140097,119.628986 130.023188,119.628986 C132.340541,111.369133 128.892207,102.574818 121.578151,98.0915314 C114.264095,93.6082445 104.862568,94.525999 98.5536232,100.33913 C95.3639088,88.5838012 84.219598,80.7950916 72.0840768,81.8396813 C59.9485556,82.8842711 50.2991688,92.4628406 49.1652174,104.590338 L48.5381643,104.494686 C43.7700452,100.07144 37.0812629,98.3736775 30.780808,99.9874707 C24.4803531,101.601264 19.4313801,106.305526 17.3768116,112.476329 C12.4696266,110.830116 7.05323921,112.229127 3.55708966,116.045856 C0.0609401196,119.862585 -0.858732036,125.380618 1.21057851,130.124923 C3.27988905,134.869228 7.94976544,137.949283 13.1256039,137.983575 L43.7874396,137.983575 C44.6108865,138.10458 45.4421061,138.164968 46.2743961,138.164251 L130.384541,138.164251 C135.505848,138.164251 139.657488,134.012611 139.657488,128.891304 C139.657488,123.769997 135.505848,119.618357 130.384541,119.618357 L130.352657,119.628986 Z" id="Shape" fill="#CBEBF5" opacity="0.8">
        </path>
        <path d="M213.61256,108.0657 L213.729469,108.0657 C217.259045,107.470852 219.739431,104.264192 219.428154,100.698402 C219.116877,97.1326111 216.118389,94.4042316 212.53913,94.4299517 L212.464734,94.4299517 C212.464734,93.9942029 212.528502,93.5478261 212.528502,93.1014493 C212.5914,85.7678206 207.301226,79.4820701 200.064551,78.2918623 C192.827875,77.1016545 185.803198,81.3619954 183.51401,88.3294686 C179.690441,87.0018872 175.443619,88.065145 172.696671,91.037757 C169.949723,94.0103691 169.224364,98.3277606 170.849065,102.034847 C172.473767,105.741934 176.139956,108.134646 180.18744,108.129469 L213.1343,108.129469 L213.1343,108.129469 L213.55942,108.129469 L213.61256,108.0657 Z" id="Shape" fill="#CBEBF5" opacity="0.8">
        </path>
      </g>
    </g>
  </g>
</svg>