<svg id="Layer_1" data-name="Layer 1" xmlns="http://www.w3.org/2000/svg" viewBox="0 0 1400 250"><defs><style>.cls-1{fill:#fff;}</style></defs><title>logoskyer</title><path id="skyer" class="cls-1" d="M918,218.75a776.55,776.55,0,0,1-108,7.31c-88.7,0-167.9-14-220-35.89-39.44,7.14-84.35,11.17-132,11.17-48.12,0-93.43-4.11-133.15-11.37-31.65,7.19-69.58,11.37-110.35,11.37-110.73,0-200.5-30.87-200.5-69,0-36.28,81.46-66,184.91-68.76C243.38,29.65,342.66,6,458,6c88.7,0,167.9,14,220,35.89,39.44-7.14,84.35-11.17,132-11.17,70.18,0,134.41,8.75,184,23.26a775,775,0,0,1,108-7.32c156.85,0,284,43.73,284,97.67S1258.85,242,1102,242C1031.82,242,967.59,233.25,918,218.75Z"/></svg>