<svg id="Layer_1" data-name="Layer 1" xmlns="http://www.w3.org/2000/svg" viewBox="0 0 100 100"><defs><style>.cls-1{fill:#fff;}</style></defs><title>logoteams</title><path id="teams" class="cls-1" d="M66,22a8.36,8.36,0,0,0-6.16,2.78V35.52A8.18,8.18,0,1,0,66,22Zm20.84,4.47a8.19,8.19,0,1,1-8.19,8.19A8.19,8.19,0,0,1,86.81,26.45ZM78.69,47.29V71.18h8.19s7.31-1.08,7.31-7.31V47.29ZM60.08,42.35V78h8.19s7.31-1.09,7.31-7.31V42.35ZM5,15.49V86.07L58,95V5ZM45.47,39.44l-10.76.48L34.37,70H26.59l.06-29.71-9.47.07V32.54l28.29-1.35Z"/></svg>